<svg xmlns="http://www.w3.org/2000/svg" id="Layer_1" data-name="Layer 1" viewBox="0 0 676.641 119.9097" transform="matrix(1, 0, 0, 1, 0, 0)"><defs fill="#ffffff"><style>.cls-1{fill:#ffffff;}</style></defs><path class="cls-1" d="M321.2835,40.4033v8.1281a17.6179,17.6179,0,0,1,7.6848-7.3887A24.2907,24.2907,0,0,1,339.904,38.63a28.1624,28.1624,0,0,1,6.3538.5911V56.8073a29.3956,29.3956,0,0,0-9.31-1.6259,15.0383,15.0383,0,0,0-11.0834,4.2857c-2.8075,2.8081-4.1373,7.0938-4.1373,12.4138v47.95H302.9585V40.4033Z" fill="#ffffff"/><path class="cls-1" d="M413.56,85.3291V74.8367c0-11.675-2.9565-20.542-8.7192-26.4531s-13.5966-9.0147-23.4979-9.0147c-10.049,0-18.0294,2.9559-23.7921,8.867s-8.5715,14.778-8.5715,26.6008v9.6058c0,12.1177,2.9553,20.9847,8.867,26.748s14.0386,8.7192,24.0877,8.7192c9.6058,0,17.1428-2.2165,22.759-6.7977s8.2747-10.4923,8.2747-18.0294v-.7388h-17.88l-.1477.4433a8.6885,8.6885,0,0,1-3.4,6.65c-2.0687,1.626-5.1717,2.3648-8.867,2.3648-4.8762,0-8.4236-1.3305-11.0834-3.8425s-3.99-6.65-3.99-12.5616V85.3291Zm-45.96-13.3c0-5.9111,1.1821-10.1968,3.5463-12.7093s5.764-3.8419,10.1968-3.8419c9.0148,0,13.4488,4.8768,13.4488,14.9258v2.0687H367.6Z" fill="#ffffff"/><path class="cls-1" d="M423.3727,86.9545v-14.63c0-11.2312,2.8075-19.507,8.5714-24.8271s13.4476-8.1281,23.3489-8.1281c9.7535,0,17.2906,2.66,22.759,7.537s8.127,11.8223,8.127,20.5414v1.4777H468.2973v-.8866a11.4585,11.4585,0,0,0-3.3986-8.7192,13.18,13.18,0,0,0-9.31-3.2508c-9.0147,0-13.5954,5.6156-13.5954,16.5512v14.187c0,5.9111,1.1821,10.1969,3.5464,12.7094s5.7639,3.8424,10.049,3.8424q5.9862,0,9.31-3.1036a10.7944,10.7944,0,0,0,3.3986-8.4236v-.8866H486.179V91.979c0,8.7192-2.66,15.37-8.127,20.3942s-13.0055,7.5365-22.759,7.5365c-9.9013,0-17.5862-2.66-23.3489-7.98S423.3727,98.1862,423.3727,86.9545Z" fill="#ffffff"/><path class="cls-1" d="M551.1156,47.497c-5.6162-5.32-13.4488-8.1281-23.2023-8.1281-9.9013,0-17.5862,2.8081-23.3489,8.1281s-8.5714,13.596-8.5714,24.8272v14.63c0,11.2317,2.8075,19.6548,8.5714,24.9748s13.4476,7.98,23.3489,7.98c9.7535,0,17.5861-2.66,23.2023-7.98s8.4225-13.7431,8.4225-24.9748v-14.63Q559.5381,55.4774,551.1156,47.497Zm-10.198,39.31c0,10.9362-4.2851,16.5518-13.0043,16.5518-8.867,0-13.3-5.6156-13.3-16.5518V72.62c0-10.9356,4.4329-16.5512,13.3-16.5512,8.7192,0,13.0043,5.6156,13.0043,16.5512Z" fill="#ffffff"/><path class="cls-1" d="M589.007,40.4033v7.0938a26.2626,26.2626,0,0,1,8.4236-5.9111,24.36,24.36,0,0,1,10.1968-2.217c8.7192,0,15.5163,3.3991,20.0981,9.9013A29.6061,29.6061,0,0,1,650.04,39.369c8.4237,0,14.7786,2.66,19.5071,7.6848s7.0938,11.97,7.0938,20.6892v51.28H657.8727V69.96c0-4.5812-1.1821-7.98-3.3985-10.3452a11.58,11.58,0,0,0-8.867-3.5463c-3.843,0-6.946,1.1821-9.1625,3.6941a14.2433,14.2433,0,0,0-3.4,9.7541v49.5065H614.2768V69.96c0-4.5812-1.1821-7.98-3.3986-10.3452a11.5766,11.5766,0,0,0-8.8669-3.5463,12.25,12.25,0,0,0-9.0147,3.6941Q589.45,63.31,589.45,69.96v49.0632H570.682v-78.62Z" fill="#ffffff"/><path class="cls-1" d="M155.2047,86.0973V71.2256c0-11.4168,2.8541-19.8288,8.7122-25.2367s13.67-8.2619,23.7352-8.2619c9.9141,0,17.5745,2.7039,23.1325,7.661s8.2631,12.0177,8.2631,20.8805v1.5021H200.8705V66.87a11.6482,11.6482,0,0,0-3.4544-8.8629,13.4,13.4,0,0,0-9.4638-3.3049c-9.1636,0-13.82,5.7081-13.82,16.8241V85.9466c0,6.0089,1.2019,10.365,3.6045,12.9188s5.8593,3.9059,10.2154,3.9059q6.0838,0,9.4638-3.1548a10.9742,10.9742,0,0,0,3.4544-8.5622v-.9017h18.1772v1.0518c0,8.8629-2.7039,15.6228-8.2631,20.73s-13.2184,7.661-23.1325,7.661c-10.0653,0-17.8758-2.7039-23.7352-8.1113S155.2047,97.5135,155.2047,86.0973Z" fill="#ffffff"/><path class="cls-1" d="M283.3921,46.7583c-5.6162-5.32-13.4488-8.1282-23.2023-8.1282-9.9013,0-17.5861,2.8081-23.3489,8.1282S228.27,60.3542,228.27,71.5854v14.63c0,11.2317,2.8075,19.6548,8.5714,24.9749s13.4476,7.98,23.3489,7.98c9.7535,0,17.5861-2.66,23.2023-7.98s8.4225-13.7432,8.4225-24.9749v-14.63Q291.8146,54.7386,283.3921,46.7583Zm-10.198,39.31c0,10.9362-4.2851,16.5518-13.0043,16.5518-8.8669,0-13.3-5.6156-13.3-16.5518V71.8809c0-10.9356,4.4329-16.5512,13.3-16.5512,8.7192,0,13.0043,5.6156,13.0043,16.5512Z" fill="#ffffff"/><path class="cls-1" d="M0,64.1235c0,.6713.0138,1.3391.0343,2.0054.006.1945.0144.3885.0221.5826q.03.7518.0769,1.499c.0116.1843.0219.369.0351.5529.047.6574.1015,1.3127.1682,1.9645.0069.0676.016.1346.0231.202q.0931.8829.2111,1.7581c.0256.1912.0529.3817.08.5723q.1062.7447.23,1.4838c.0272.1634.0527.3275.0812.49q.1679.9606.3626,1.9117c.02.0963.0424.1918.0628.2879q.1716.8134.3642,1.619.0643.2694.1312.5379.1863.752.39,1.4967c.0363.1325.0706.2658.1077.3979q.2622.9343.5513,1.8571c.0336.1068.07.2126.1037.3192q.2457.7688.51,1.5287.0846.2436.1712.4863.2757.7722.57,1.5357c.0351.0907.0683.1823.1037.2728q.355.9071.7372,1.8c.0446.1048.0915.2082.1367.3127q.3212.7407.66,1.4716.0962.2072.1933.4139.3856.8163.792,1.62c.0163.0322.0318.0648.0482.0969q.4476.8782.9223,1.74c.0526.0958.1069.1906.16.2861q.3994.7184.8164,1.4253c.0661.1119.1318.2241.1985.3356q1.0028,1.6765,2.1027,3.2857c.0568.083.1148.1652.1719.2479q.4836.7.9849,1.3863c.06.0821.12.1647.18.2464q1.17,1.5856,2.4339,3.0956c.0569.068.1145.1354.1718.2031q.5746.6808,1.1675,1.3458c.0461.0516.0916.1037.1379.1553q1.3308,1.4814,2.7513,2.8783c.0553.0544.1111.1084.1666.1626q.6711.6555,1.3605,1.292l.0733.0682q1.4827,1.362,3.05,2.63.081.0656.1623.1307,2.35,1.89,4.8759,3.5581l.1611.1061q1.7044,1.1178,3.4819,2.13c7.8682-6.1154,19.1278-9.9461,31.6344-9.9461S87.89,113.7943,95.7578,119.91q1.778-1.01,3.4827-2.13.08-.0522.16-.1049,2.5242-1.6661,4.8768-3.5587.0812-.0653.1622-.1307,1.5663-1.2679,3.0506-2.63c.0246-.0226.0486-.0456.0732-.0682q.69-.6357,1.3605-1.292c.0555-.0542.1112-.1082.1666-.1626q1.4194-1.3964,2.7513-2.8783c.0462-.0516.0918-.1037.1378-.1553q.5931-.6645,1.1676-1.3458c.0572-.0677.1149-.1351.1718-.2031q1.2635-1.51,2.4345-3.0965c.06-.081.1186-.1627.178-.244q.5025-.6877.9872-1.3894c.0566-.0819.114-.1632.17-.2454q1.1-1.6088,2.1034-3.2866c.0667-.1115.1324-.2237.1984-.3356q.417-.707.8164-1.4253c.0531-.0955.1073-.19.16-.2861q.4734-.8623.9223-1.74c.0164-.0321.0318-.0647.0482-.0969q.4079-.8034.792-1.62.0975-.2064.1933-.4139.3389-.7308.66-1.4716c.0453-.1044.0921-.2079.1368-.3125q.3817-.894.7375-1.8014c.0349-.0891.0676-.1794.1021-.2687q.2957-.7653.5718-1.54.0861-.2412.17-.4834.2648-.7609.5107-1.53c.034-.1065.07-.2121.1035-.3188q.29-.9226.5513-1.8571c.0371-.1321.0714-.2654.1077-.3979q.204-.7447.39-1.4967.0666-.2686.1313-.5379.1921-.8056.3642-1.619c.02-.0961.0429-.1916.0628-.2879q.196-.9505.3626-1.9117c.0285-.1629.0539-.327.0812-.49q.1233-.739.23-1.4838c.0272-.1906.0545-.3811.08-.5721q.1173-.8779.2117-1.7628c.0069-.0656.0157-.1308.0225-.1965.0667-.6521.1212-1.3079.1683-1.9656.0132-.1839.0234-.3685.035-.5528q.0471-.7471.0769-1.499c.0078-.1941.0162-.3881.0222-.5826.02-.6663.0343-1.3341.0343-2.0054v0a63.8931,63.8931,0,0,0-5.6645-26.3891q-.321-.71-.6588-1.411a64.1836,64.1836,0,0,0-8.3194-12.9883q-.49-.5939-.994-1.1756-1.5117-1.7451-3.1447-3.3781a64.1234,64.1234,0,0,0-90.6842,0q-1.6318,1.6318-3.1446,3.3781-.5038.5817-.994,1.1756A64.1793,64.1793,0,0,0,6.3233,36.3233q-.3378.7008-.6589,1.411A63.893,63.893,0,0,0,0,64.1234ZM64.1234,31.7907A32.3328,32.3328,0,1,1,31.7907,64.1234,32.3327,32.3327,0,0,1,64.1234,31.7907Z" fill="#ffffff"/></svg>